<svg width="529" height="304" xmlns="http://www.w3.org/2000/svg" xmlns:xlink="http://www.w3.org/1999/xlink" overflow="hidden"><defs><clipPath id="clip0"><rect x="326" y="208" width="529" height="304"/></clipPath></defs><g clip-path="url(#clip0)" transform="translate(-326 -208)"><path d="M0 155 32 0 96 0 128 155Z" stroke="#FFD966" stroke-width="16" stroke-miterlimit="8" fill="#FFE699" fill-rule="evenodd" transform="matrix(1.83697e-16 1 1 -1.83697e-16 485 296)"/><rect x="326" y="330" width="118" height="65" fill="#FFE699"/><path d="M326 395 439.474 395" stroke="#FFD966" stroke-width="16" stroke-miterlimit="8" fill="none" fill-rule="evenodd"/><path d="M326 330 439.474 330" stroke="#FFD966" stroke-width="16" stroke-miterlimit="8" fill="none" fill-rule="evenodd"/><rect x="427" y="466" width="85" height="38" fill="#B4C7E7"/><rect x="437" y="217" width="64" height="286" fill="#B4C7E7"/><rect x="427" y="218" width="85" height="37" fill="#B4C7E7"/><path d="M419.082 222.799C449.418 290.097 452.483 406.974 425.928 483.853 423.896 489.735 421.719 495.285 419.41 500.47" stroke="#8FAADC" stroke-width="16" stroke-miterlimit="8" fill="none" fill-rule="evenodd"/><path d="M410 217 527.982 217" stroke="#8FAADC" stroke-width="16" stroke-miterlimit="8" fill="none" fill-rule="evenodd"/><path d="M121.725 45.3881C152.359 112.425 155.601 229.276 128.968 306.382 126.821 312.596 124.512 318.444 122.056 323.884" stroke="#8FAADC" stroke-width="16" stroke-miterlimit="8" fill="none" fill-rule="evenodd" transform="matrix(-1 0 0 1 640 177)"/><path d="M410 503 527.982 503" stroke="#8FAADC" stroke-width="16" stroke-miterlimit="8" fill="none" fill-rule="evenodd"/><path d="M689 298 844 330.25 844 394.75 689 427Z" stroke="#FFD966" stroke-width="16" stroke-miterlimit="8" fill="#FFE699" fill-rule="evenodd"/><rect x="628" y="257" width="79" height="209" fill="#B4C7E7"/><rect x="641" y="217" width="52" height="286" fill="#B4C7E7"/><path d="M683.725 222.388C714.359 289.425 717.601 406.276 690.968 483.382 688.821 489.596 686.512 495.444 684.056 500.884" stroke="#8FAADC" stroke-width="16" stroke-miterlimit="8" fill="none" fill-rule="evenodd"/><path d="M636 217 693.286 217" stroke="#8FAADC" stroke-width="16" stroke-miterlimit="8" fill="none" fill-rule="evenodd"/><path d="M121.082 45.7992C151.418 113.097 154.483 229.974 127.928 306.853 125.896 312.735 123.719 318.285 121.41 323.47" stroke="#8FAADC" stroke-width="16" stroke-miterlimit="8" fill="none" fill-rule="evenodd" transform="matrix(-1 0 0 1 766 177)"/><path d="M636 503 693.286 503" stroke="#8FAADC" stroke-width="16" stroke-miterlimit="8" fill="none" fill-rule="evenodd"/><rect x="750" y="340" width="104" height="45" fill="#FFE699"/></g></svg>